ffmpeg started on 2025-06-06 at 19:45:38
Report written to "D:\Convert\FFMetrics\reports\ssim_report-6.txt"
Log level: 32
Command line:
ffmpeg -hide_banner -nostdin -i "G:\\\xc0\xed\xe8\xec\xe5\\\xce\xed\xe3\xee\xe8\xed\xe3\xe8\\!_36_\xce\xf1\xe5\xed\xfc_2024\\DreamCast\\\xd0\xee\xed \xca\xe0\xec\xee\xed\xee\xf5\xe0\xf1\xe8 - \xcd\xe5\xe2\xec\xe5\xed\xff\xe5\xec\xfb\xe9 \xe4\xe5\xf2\xe5\xea\xf2\xe8\xe2\\\xd2\xc2-2\\DC_Kamonohashi_Ron_no_Kindan_Suiri_2nd_Season_04_Telegram_HEVC.mkv" -i "G:\\\xc0\xed\xe8\xec\xe5\\\xce\xed\xe3\xee\xe8\xed\xe3\xe8\\!_36_\xce\xf1\xe5\xed\xfc_2024\\DreamCast\\\xd0\xee\xed \xca\xe0\xec\xee\xed\xee\xf5\xe0\xf1\xe8 - \xcd\xe5\xe2\xec\xe5\xed\xff\xe5\xec\xfb\xe9 \xe4\xe5\xf2\xe5\xea\xf2\xe8\xe2\\\xd2\xc2-2\\DC_Kamonohashi_Ron_no_Kindan_Suiri_2nd_Season_04_Telegram.mp4" -lavfi "[0:v]settb=AVTB,setpts=PTS-STARTPTS,format=pix_fmts=yuv420p10,fps=24000/1001,scale=1920:1080:flags=bicubic[main];[1:v]settb=AVTB,setpts=PTS-STARTPTS,format=pix_fmts=yuv420p,fps=24000/1001,scale=1920:1080:flags=bicubic[ref];[main][ref]ssim=eof_action=endall:stats_file='D\\:/Convert/FFMetrics/logs/ssim_logfile-6.txt'" -f null -
Input #0, matroska,webm, from 'G:\Аниме\Онгоинги\!_36_Осень_2024\DreamCast\Рон Камонохаси - Невменяемый детектив\ТВ-2\DC_Kamonohashi_Ron_no_Kindan_Suiri_2nd_Season_04_Telegram_HEVC.mkv':
  Metadata:
    COMPATIBLE_BRANDS: isomiso2avc1mp41
    MAJOR_BRAND     : isom
    MINOR_VERSION   : 512
    ENCODER         : Lavf61.7.100
  Duration: 00:23:46.69, start: -0.021000, bitrate: 898 kb/s
  Stream #0:0: Video: hevc (Main 10), yuv420p10le(tv, bt709, progressive), 1920x1080 [SAR 1:1 DAR 16:9], 23.98 fps, 23.98 tbr, 1k tbn (default)
      Metadata:
        HANDLER_NAME    : VideoHandler
        VENDOR_ID       : [0][0][0][0]
        ENCODER         : Lavc61.19.100 libx265
        BPS             : 701481
        DURATION        : 00:23:46.591708333
        NUMBER_OF_FRAMES: 34204
        NUMBER_OF_BYTES : 125090908
        _STATISTICS_WRITING_APP: mkvpropedit v66.0.0 ('Josie') 64-bit
        _STATISTICS_WRITING_DATE_UTC: 2025-06-04 07:24:39
        _STATISTICS_TAGS: BPS DURATION NUMBER_OF_FRAMES NUMBER_OF_BYTES
  Stream #0:1: Audio: aac (LC), 48000 Hz, stereo, fltp (default)
      Metadata:
        HANDLER_NAME    : SoundHandler
        VENDOR_ID       : [0][0][0][0]
        ENCODER         : Lavc61.19.100 aac
        BPS             : 193371
        DURATION        : 00:23:46.688000000
        NUMBER_OF_FRAMES: 66877
        NUMBER_OF_BYTES : 34485139
        _STATISTICS_WRITING_APP: mkvpropedit v66.0.0 ('Josie') 64-bit
        _STATISTICS_WRITING_DATE_UTC: 2025-06-04 07:24:39
        _STATISTICS_TAGS: BPS DURATION NUMBER_OF_FRAMES NUMBER_OF_BYTES
Input #1, mov,mp4,m4a,3gp,3g2,mj2, from 'G:\Аниме\Онгоинги\!_36_Осень_2024\DreamCast\Рон Камонохаси - Невменяемый детектив\ТВ-2\DC_Kamonohashi_Ron_no_Kindan_Suiri_2nd_Season_04_Telegram.mp4':
  Metadata:
    major_brand     : isom
    minor_version   : 512
    compatible_brands: isomiso2avc1mp41
    encoder         : Lavf61.1.100
  Duration: 00:23:46.66, start: 0.000000, bitrate: 3537 kb/s
  Stream #1:0[0x1](und): Video: h264 (High) (avc1 / 0x31637661), yuv420p(tv, bt709, progressive), 1920x1080 [SAR 1:1 DAR 16:9], 3389 kb/s, 23.98 fps, 23.98 tbr, 24k tbn (default)
      Metadata:
        handler_name    : VideoHandler
        vendor_id       : [0][0][0][0]
        encoder         : Lavc61.3.100 h264_qsv
  Stream #1:1[0x2](und): Audio: aac (HE-AACv2) (mp4a / 0x6134706D), 48000 Hz, stereo, fltp, 144 kb/s (default)
      Metadata:
        handler_name    : SoundHandler
        vendor_id       : [0][0][0][0]
Stream mapping:
  Stream #0:0 (hevc) -> settb:default
  Stream #1:0 (h264) -> settb:default
  ssim:default -> Stream #0:0 (wrapped_avframe)
  Stream #0:1 -> #0:1 (aac (native) -> pcm_s16le (native))
Output #0, null, to 'pipe:':
  Metadata:
    COMPATIBLE_BRANDS: isomiso2avc1mp41
    MAJOR_BRAND     : isom
    MINOR_VERSION   : 512
    encoder         : Lavf61.7.100
  Stream #0:0: Video: wrapped_avframe, yuv420p10le(tv, bt709, progressive), 1920x1080 [SAR 1:1 DAR 16:9], q=2-31, 200 kb/s, 23.98 fps, 23.98 tbn
      Metadata:
        encoder         : Lavc61.19.100 wrapped_avframe
  Stream #0:1: Audio: pcm_s16le, 48000 Hz, stereo, s16, 1536 kb/s (default)
      Metadata:
        HANDLER_NAME    : SoundHandler
        VENDOR_ID       : [0][0][0][0]
        _STATISTICS_TAGS: BPS DURATION NUMBER_OF_FRAMES NUMBER_OF_BYTES
        BPS             : 193371
        DURATION        : 00:23:46.688000000
        NUMBER_OF_FRAMES: 66877
        NUMBER_OF_BYTES : 34485139
        _STATISTICS_WRITING_APP: mkvpropedit v66.0.0 ('Josie') 64-bit
        _STATISTICS_WRITING_DATE_UTC: 2025-06-04 07:24:39
        encoder         : Lavc61.19.100 pcm_s16le
frame=  179 fps=0.0 q=-0.0 size=N/A time=00:00:07.46 bitrate=N/A speed=14.4x    frame=  464 fps=446 q=-0.0 size=N/A time=00:00:19.35 bitrate=N/A speed=18.6x    frame=  719 fps=464 q=-0.0 size=N/A time=00:00:29.98 bitrate=N/A speed=19.4x    frame=  937 fps=453 q=-0.0 size=N/A time=00:00:39.08 bitrate=N/A speed=18.9x    frame= 1151 fps=445 q=-0.0 size=N/A time=00:00:48.00 bitrate=N/A speed=18.6x    frame= 1395 fps=451 q=-0.0 size=N/A time=00:00:58.18 bitrate=N/A speed=18.8x    frame= 1618 fps=447 q=-0.0 size=N/A time=00:01:07.48 bitrate=N/A speed=18.7x    frame= 1862 fps=451 q=-0.0 size=N/A time=00:01:17.66 bitrate=N/A speed=18.8x    frame= 2107 fps=454 q=-0.0 size=N/A time=00:01:27.87 bitrate=N/A speed=18.9x    frame= 2385 fps=462 q=-0.0 size=N/A time=00:01:39.47 bitrate=N/A speed=19.3x    frame= 2612 fps=460 q=-0.0 size=N/A time=00:01:48.94 bitrate=N/A speed=19.2x    frame= 2809 fps=453 q=-0.0 size=N/A time=00:01:57.15 bitrate=N/A speed=18.9x    frame= 3006 fps=448 q=-0.0 size=N/A time=00:02:05.37 bitrate=N/A speed=18.7x    frame= 3220 fps=446 q=-0.0 size=N/A time=00:02:14.30 bitrate=N/A speed=18.6x    frame= 3458 fps=447 q=-0.0 size=N/A time=00:02:24.22 bitrate=N/A speed=18.6x    frame= 3723 fps=451 q=-0.0 size=N/A time=00:02:35.28 bitrate=N/A speed=18.8x    frame= 3956 fps=451 q=-0.0 size=N/A time=00:02:44.99 bitrate=N/A speed=18.8x    frame= 4217 fps=454 q=-0.0 size=N/A time=00:02:55.88 bitrate=N/A speed=18.9x    frame= 4453 fps=454 q=-0.0 size=N/A time=00:03:05.72 bitrate=N/A speed=18.9x    frame= 4705 fps=456 q=-0.0 size=N/A time=00:03:16.23 bitrate=N/A speed=  19x    frame= 4974 fps=459 q=-0.0 size=N/A time=00:03:27.45 bitrate=N/A speed=19.1x    frame= 5211 fps=459 q=-0.0 size=N/A time=00:03:37.34 bitrate=N/A speed=19.1x    frame= 5430 fps=458 q=-0.0 size=N/A time=00:03:46.47 bitrate=N/A speed=19.1x    frame= 5679 fps=459 q=-0.0 size=N/A time=00:03:56.86 bitrate=N/A speed=19.1x    frame= 5922 fps=459 q=-0.0 size=N/A time=00:04:06.99 bitrate=N/A speed=19.2x    frame= 6153 fps=459 q=-0.0 size=N/A time=00:04:16.63 bitrate=N/A speed=19.1x    frame= 6430 fps=462 q=-0.0 size=N/A time=00:04:28.18 bitrate=N/A speed=19.2x    frame= 6698 fps=464 q=-0.0 size=N/A time=00:04:39.36 bitrate=N/A speed=19.3x    frame= 6965 fps=466 q=-0.0 size=N/A time=00:04:50.49 bitrate=N/A speed=19.4x    frame= 7241 fps=468 q=-0.0 size=N/A time=00:05:02.01 bitrate=N/A speed=19.5x    frame= 7510 fps=469 q=-0.0 size=N/A time=00:05:13.22 bitrate=N/A speed=19.6x    frame= 7776 fps=471 q=-0.0 size=N/A time=00:05:24.32 bitrate=N/A speed=19.6x    frame= 8043 fps=472 q=-0.0 size=N/A time=00:05:35.46 bitrate=N/A speed=19.7x    frame= 8291 fps=473 q=-0.0 size=N/A time=00:05:45.80 bitrate=N/A speed=19.7x    frame= 8556 fps=474 q=-0.0 size=N/A time=00:05:56.85 bitrate=N/A speed=19.8x    frame= 8832 fps=476 q=-0.0 size=N/A time=00:06:08.36 bitrate=N/A speed=19.8x    frame= 9106 fps=477 q=-0.0 size=N/A time=00:06:19.79 bitrate=N/A speed=19.9x    frame= 9389 fps=479 q=-0.0 size=N/A time=00:06:31.59 bitrate=N/A speed=  20x    frame= 9645 fps=479 q=-0.0 size=N/A time=00:06:42.27 bitrate=N/A speed=  20x    frame= 9920 fps=481 q=-0.0 size=N/A time=00:06:53.74 bitrate=N/A speed=20.1x    frame=10190 fps=482 q=-0.0 size=N/A time=00:07:05.00 bitrate=N/A speed=20.1x    frame=10450 fps=482 q=-0.0 size=N/A time=00:07:15.85 bitrate=N/A speed=20.1x    frame=10702 fps=483 q=-0.0 size=N/A time=00:07:26.36 bitrate=N/A speed=20.1x    frame=10985 fps=484 q=-0.0 size=N/A time=00:07:38.16 bitrate=N/A speed=20.2x    frame=11240 fps=484 q=-0.0 size=N/A time=00:07:48.80 bitrate=N/A speed=20.2x    frame=11486 fps=484 q=-0.0 size=N/A time=00:07:59.06 bitrate=N/A speed=20.2x    frame=11759 fps=485 q=-0.0 size=N/A time=00:08:10.44 bitrate=N/A speed=20.2x    frame=12032 fps=486 q=-0.0 size=N/A time=00:08:21.83 bitrate=N/A speed=20.3x    frame=12290 fps=486 q=-0.0 size=N/A time=00:08:32.59 bitrate=N/A speed=20.3x    frame=12564 fps=487 q=-0.0 size=N/A time=00:08:44.02 bitrate=N/A speed=20.3x    frame=12831 fps=488 q=-0.0 size=N/A time=00:08:55.15 bitrate=N/A speed=20.3x    frame=13107 fps=489 q=-0.0 size=N/A time=00:09:06.67 bitrate=N/A speed=20.4x    frame=13388 fps=490 q=-0.0 size=N/A time=00:09:18.39 bitrate=N/A speed=20.4x    frame=13633 fps=490 q=-0.0 size=N/A time=00:09:28.60 bitrate=N/A speed=20.4x    frame=13867 fps=489 q=-0.0 size=N/A time=00:09:38.36 bitrate=N/A speed=20.4x    frame=14129 fps=489 q=-0.0 size=N/A time=00:09:49.29 bitrate=N/A speed=20.4x    frame=14360 fps=488 q=-0.0 size=N/A time=00:09:58.93 bitrate=N/A speed=20.4x    frame=14613 fps=489 q=-0.0 size=N/A time=00:10:09.48 bitrate=N/A speed=20.4x    frame=14852 fps=488 q=-0.0 size=N/A time=00:10:19.45 bitrate=N/A speed=20.4x    frame=15123 fps=489 q=-0.0 size=N/A time=00:10:30.75 bitrate=N/A speed=20.4x    frame=15398 fps=489 q=-0.0 size=N/A time=00:10:42.22 bitrate=N/A speed=20.4x    frame=15660 fps=490 q=-0.0 size=N/A time=00:10:53.15 bitrate=N/A speed=20.4x    frame=15934 fps=490 q=-0.0 size=N/A time=00:11:04.58 bitrate=N/A speed=20.5x    frame=16172 fps=490 q=-0.0 size=N/A time=00:11:14.50 bitrate=N/A speed=20.4x    frame=16424 fps=490 q=-0.0 size=N/A time=00:11:25.01 bitrate=N/A speed=20.4x    frame=16682 fps=490 q=-0.0 size=N/A time=00:11:35.77 bitrate=N/A speed=20.4x    frame=16962 fps=491 q=-0.0 size=N/A time=00:11:47.45 bitrate=N/A speed=20.5x    frame=17221 fps=491 q=-0.0 size=N/A time=00:11:58.25 bitrate=N/A speed=20.5x    frame=17476 fps=491 q=-0.0 size=N/A time=00:12:08.89 bitrate=N/A speed=20.5x    frame=17744 fps=492 q=-0.0 size=N/A time=00:12:20.07 bitrate=N/A speed=20.5x    frame=17971 fps=491 q=-0.0 size=N/A time=00:12:29.54 bitrate=N/A speed=20.5x    frame=18212 fps=490 q=-0.0 size=N/A time=00:12:39.59 bitrate=N/A speed=20.5x    frame=18473 fps=491 q=-0.0 size=N/A time=00:12:50.47 bitrate=N/A speed=20.5x    frame=18744 fps=491 q=-0.0 size=N/A time=00:13:01.78 bitrate=N/A speed=20.5x    frame=19004 fps=491 q=-0.0 size=N/A time=00:13:12.62 bitrate=N/A speed=20.5x    frame=19259 fps=491 q=-0.0 size=N/A time=00:13:23.26 bitrate=N/A speed=20.5x    frame=19504 fps=491 q=-0.0 size=N/A time=00:13:33.47 bitrate=N/A speed=20.5x    frame=19760 fps=491 q=-0.0 size=N/A time=00:13:44.15 bitrate=N/A speed=20.5x    frame=20037 fps=492 q=-0.0 size=N/A time=00:13:55.70 bitrate=N/A speed=20.5x    frame=20315 fps=492 q=-0.0 size=N/A time=00:14:07.30 bitrate=N/A speed=20.5x    frame=20611 fps=493 q=-0.0 size=N/A time=00:14:19.65 bitrate=N/A speed=20.6x    frame=20866 fps=493 q=-0.0 size=N/A time=00:14:30.28 bitrate=N/A speed=20.6x    frame=21077 fps=492 q=-0.0 size=N/A time=00:14:39.08 bitrate=N/A speed=20.5x    frame=21318 fps=492 q=-0.0 size=N/A time=00:14:49.13 bitrate=N/A speed=20.5x    frame=21547 fps=492 q=-0.0 size=N/A time=00:14:58.68 bitrate=N/A speed=20.5x    frame=21755 fps=490 q=-0.0 size=N/A time=00:15:07.36 bitrate=N/A speed=20.5x    frame=22018 fps=491 q=-0.0 size=N/A time=00:15:18.33 bitrate=N/A speed=20.5x    frame=22246 fps=490 q=-0.0 size=N/A time=00:15:27.84 bitrate=N/A speed=20.4x    frame=22515 fps=491 q=-0.0 size=N/A time=00:15:39.06 bitrate=N/A speed=20.5x    frame=22723 fps=490 q=-0.0 size=N/A time=00:15:47.73 bitrate=N/A speed=20.4x    frame=22984 fps=490 q=-0.0 size=N/A time=00:15:58.62 bitrate=N/A speed=20.4x    frame=23240 fps=490 q=-0.0 size=N/A time=00:16:09.30 bitrate=N/A speed=20.4x    frame=23494 fps=490 q=-0.0 size=N/A time=00:16:19.89 bitrate=N/A speed=20.4x    frame=23748 fps=490 q=-0.0 size=N/A time=00:16:30.48 bitrate=N/A speed=20.4x    frame=24020 fps=490 q=-0.0 size=N/A time=00:16:41.83 bitrate=N/A speed=20.4x    frame=24278 fps=490 q=-0.0 size=N/A time=00:16:52.59 bitrate=N/A speed=20.5x    frame=24553 fps=491 q=-0.0 size=N/A time=00:17:04.06 bitrate=N/A speed=20.5x    frame=24806 fps=491 q=-0.0 size=N/A time=00:17:14.61 bitrate=N/A speed=20.5x    frame=25097 fps=492 q=-0.0 size=N/A time=00:17:26.75 bitrate=N/A speed=20.5x    frame=25369 fps=492 q=-0.0 size=N/A time=00:17:38.09 bitrate=N/A speed=20.5x    frame=25635 fps=492 q=-0.0 size=N/A time=00:17:49.19 bitrate=N/A speed=20.5x    frame=25902 fps=492 q=-0.0 size=N/A time=00:18:00.32 bitrate=N/A speed=20.5x    frame=26185 fps=493 q=-0.0 size=N/A time=00:18:12.13 bitrate=N/A speed=20.6x    frame=26425 fps=493 q=-0.0 size=N/A time=00:18:22.14 bitrate=N/A speed=20.5x    frame=26681 fps=493 q=-0.0 size=N/A time=00:18:32.82 bitrate=N/A speed=20.6x    frame=26930 fps=493 q=-0.0 size=N/A time=00:18:43.20 bitrate=N/A speed=20.5x    frame=27183 fps=493 q=-0.0 size=N/A time=00:18:53.75 bitrate=N/A speed=20.6x    frame=27411 fps=492 q=-0.0 size=N/A time=00:19:03.26 bitrate=N/A speed=20.5x    frame=27674 fps=492 q=-0.0 size=N/A time=00:19:14.23 bitrate=N/A speed=20.5x    frame=27946 fps=493 q=-0.0 size=N/A time=00:19:25.58 bitrate=N/A speed=20.5x    frame=28224 fps=493 q=-0.0 size=N/A time=00:19:37.17 bitrate=N/A speed=20.6x    frame=28486 fps=493 q=-0.0 size=N/A time=00:19:48.10 bitrate=N/A speed=20.6x    frame=28729 fps=493 q=-0.0 size=N/A time=00:19:58.23 bitrate=N/A speed=20.6x    frame=28955 fps=493 q=-0.0 size=N/A time=00:20:07.66 bitrate=N/A speed=20.5x    frame=29211 fps=493 q=-0.0 size=N/A time=00:20:18.34 bitrate=N/A speed=20.5x    frame=29476 fps=493 q=-0.0 size=N/A time=00:20:29.39 bitrate=N/A speed=20.6x    frame=29748 fps=493 q=-0.0 size=N/A time=00:20:40.73 bitrate=N/A speed=20.6x    frame=30011 fps=493 q=-0.0 size=N/A time=00:20:51.70 bitrate=N/A speed=20.6x    frame=30273 fps=493 q=-0.0 size=N/A time=00:21:02.63 bitrate=N/A speed=20.6x    frame=30506 fps=493 q=-0.0 size=N/A time=00:21:12.35 bitrate=N/A speed=20.6x    frame=30785 fps=493 q=-0.0 size=N/A time=00:21:23.99 bitrate=N/A speed=20.6x    frame=31033 fps=493 q=-0.0 size=N/A time=00:21:34.33 bitrate=N/A speed=20.6x    frame=31307 fps=493 q=-0.0 size=N/A time=00:21:45.76 bitrate=N/A speed=20.6x    frame=31580 fps=494 q=-0.0 size=N/A time=00:21:57.14 bitrate=N/A speed=20.6x    frame=31855 fps=494 q=-0.0 size=N/A time=00:22:08.61 bitrate=N/A speed=20.6x    frame=32127 fps=494 q=-0.0 size=N/A time=00:22:19.96 bitrate=N/A speed=20.6x    frame=32394 fps=495 q=-0.0 size=N/A time=00:22:31.09 bitrate=N/A speed=20.6x    frame=32636 fps=494 q=-0.0 size=N/A time=00:22:41.19 bitrate=N/A speed=20.6x    frame=32897 fps=494 q=-0.0 size=N/A time=00:22:52.07 bitrate=N/A speed=20.6x    frame=33150 fps=494 q=-0.0 size=N/A time=00:23:02.63 bitrate=N/A speed=20.6x    frame=33355 fps=494 q=-0.0 size=N/A time=00:23:11.18 bitrate=N/A speed=20.6x    frame=33609 fps=494 q=-0.0 size=N/A time=00:23:21.77 bitrate=N/A speed=20.6x    frame=33875 fps=494 q=-0.0 size=N/A time=00:23:32.86 bitrate=N/A speed=20.6x    frame=34084 fps=493 q=-0.0 size=N/A time=00:23:41.58 bitrate=N/A speed=20.6x    [Parsed_ssim_10 @ 00000207df725800] SSIM Y:0.995102 (23.099699) U:0.993247 (21.705140) V:0.994044 (22.250421) All:0.994616 (22.689301)
[out#0/null @ 00000207dfa15a00] video:14697KiB audio:267508KiB subtitle:0KiB other streams:0KiB global headers:0KiB muxing overhead: unknown
frame=34204 fps=493 q=-0.0 Lsize=N/A time=00:23:46.59 bitrate=N/A speed=20.6x    
